<?xml version="1.0" encoding="utf-8"?>
<!-- Generator: Adobe Illustrator 25.4.1, SVG Export Plug-In . SVG Version: 6.00 Build 0)  -->
<svg version="1.1" id="Layer_1" xmlns="http://www.w3.org/2000/svg" xmlns:xlink="http://www.w3.org/1999/xlink" x="0px" y="0px"
	 viewBox="0 0 245 55" style="enable-background:new 0 0 245 55;" xml:space="preserve">
<style type="text/css">
	.st0{fill:#FF0001;}
	.st1{fill:#FFFFFF;}
	.st2{fill:#070606;}
</style>
<path class="st0" d="M53.7,0.9H0.8v52.8h52.9V0.9z"/>
<path class="st1" d="M43.6,41.6l0.5,1.6l1.6,0l-1.3,1l0.5,1.6l-1.3-1l-1.3,1l0.5-1.6l-1.3-1l1.6,0L43.6,41.6z"/>
<path class="st1" d="M37.1,44l0.5,1.6h1.6l-1.3,1l0.5,1.6l-1.3-1l-1.3,1l0.5-1.6l-1.3-1h1.6L37.1,44z"/>
<path class="st1" d="M30.6,44.4l0.5,1.6l1.6,0l-1.3,1l0.5,1.6l-1.3-1l-1.3,1l0.5-1.6l-1.3-1l1.6,0L30.6,44.4z"/>
<path class="st1" d="M23.7,43.6l0.4,1.4l1.4,0l-1.1,0.9l0.4,1.4l-1.1-0.9l-1.1,0.9l0.4-1.4L21.8,45l1.4,0L23.7,43.6z"/>
<path class="st1" d="M19,41.3l0.4,1.3l1.3,0l-1.1,0.8l0.4,1.3L19,43.9l-1.1,0.8l0.4-1.3l-1.1-0.8l1.3,0L19,41.3z"/>
<path class="st1" d="M15,37.7l0.4,1.3h1.3l-1.1,0.8l0.4,1.3L15,40.4l-1.1,0.8l0.4-1.3L13.2,39h1.3L15,37.7z"/>
<path class="st1" d="M11.8,33.5l0.4,1.3l1.3,0l-1.1,0.8l0.4,1.3l-1.1-0.8L10.7,37l0.4-1.3l-1.1-0.8l1.3,0L11.8,33.5z"/>
<path class="st1" d="M10.4,28.7l0.4,1.2l1.2,0l-1,0.8l0.4,1.2l-1-0.8l-1,0.8l0.4-1.2l-1-0.8l1.2,0L10.4,28.7z"/>
<path class="st1" d="M10.4,24.1l0.4,1.2l1.2,0L11,26l0.4,1.2l-1-0.7l-1,0.7L9.8,26l-1-0.7l1.2,0L10.4,24.1z"/>
<path class="st1" d="M11.1,19.7l0.4,1.2l1.2,0l-0.9,0.7l0.4,1.2l-0.9-0.7l-1,0.7l0.4-1.2l-1-0.7l1.2,0L11.1,19.7z"/>
<path class="st1" d="M13.1,15.4l0.4,1.2h1.2l-0.9,0.7l0.3,1.2l-0.9-0.7l-0.9,0.7l0.4-1.2l-0.9-0.7h1.1L13.1,15.4z"/>
<path class="st1" d="M16.1,11.8l0.3,1.1l1.1,0l-0.9,0.7l0.3,1.1L16.1,14l-0.9,0.7l0.3-1.1l-0.9-0.7l1.1,0L16.1,11.8z"/>
<path class="st1" d="M19.6,8.8l0.3,1.1H21l-0.9,0.7l0.3,1.1L19.6,11l-0.9,0.7l0.3-1.1l-0.9-0.7h1.1L19.6,8.8z"/>
<path class="st1" d="M23.9,6.9l0.3,1h1l-0.8,0.6l0.3,1l-0.8-0.6l-0.8,0.6l0.3-1l-0.8-0.6h1L23.9,6.9z"/>
<path class="st1" d="M28.4,6.2l0.3,0.9h0.9l-0.8,0.6l0.3,0.9L28.4,8l-0.8,0.6l0.3-0.9l-0.7-0.6h0.9L28.4,6.2z"/>
<path class="st1" d="M33.6,6.3l0.3,0.9h0.9l-0.7,0.5l0.3,0.9l-0.7-0.5l-0.7,0.5l0.3-0.9l-0.7-0.5h0.9L33.6,6.3z"/>
<path class="st1" d="M38.9,7.4l0.3,0.9l0.9,0l-0.7,0.5l0.3,0.9l-0.7-0.5l-0.7,0.5l0.3-0.9l-0.7-0.5l0.8,0L38.9,7.4z"/>
<path class="st1" d="M43.7,10.4l0.2,0.8l0.8,0l-0.6,0.5l0.2,0.8L43.7,12l-0.6,0.5l0.2-0.8l-0.6-0.5l0.8,0L43.7,10.4z"/>
<path class="st1" d="M42.9,35.1c0,0-1.6,1.9-6.4-0.8c-2.4-1.2-4.8-2-7.4-2.6c0,0,2.9-3.4,3.6-6.9s2.1-12.3,5.2-12.8
	c2.9-0.5,3.3,1.6,2.9,4.5c-0.5,3.4-2.9,10.4-8.7,11.8l0.4,0.8c2-0.6,3.8-1.5,5.4-2.9c1.6-1.3,2.9-3,3.7-4.8
	c0.7-1.4,3.1-9.1-2.4-10.3C34,10,29,16.9,28,21c-0.7,3.1-1.7,10.3-1.7,10.3C24.2,31,22,31.3,20,32.1c-2.8,1.4-4.5,3.3-3.5,6.1
	c0.6,1.8,5.1,2.3,8.9-2c0,0,7.1,3.5,11.3,3.4c2.5-0.1,5.6-3,6.4-3.8L42.9,35.1z M19.6,38.3c-0.8,0.1-1.6,0-2.3-0.3
	c-0.4-0.3-0.6-0.8-0.1-1.5c0.9-1.5,7.3-0.3,7.3-0.3c-0.6,0.7-1.4,1.2-2.2,1.6C21.4,38.1,20.5,38.3,19.6,38.3z"/>
<path class="st0" d="M64.9,6.7h5.1v12.5h8v4.1H64.9V6.7z"/>
<path class="st0" d="M90.7,20.6h-5.8L84,23.4h-5.3L85,6.7h5.6l6.3,16.7h-5.4L90.7,20.6z M89.6,17l-1.8-6L86,17L89.6,17z"/>
<path class="st0" d="M98.6,6.7h4.8l6.3,9.2V6.7h4.9v16.7h-4.9l-6.2-9.1v9.1h-4.8V6.7z"/>
<path class="st0" d="M129,16.6l4.5,1.4c-0.2,1.1-0.7,2.2-1.4,3.2c-0.6,0.8-1.5,1.5-2.4,1.9c-1.2,0.5-2.4,0.7-3.7,0.6
	c-1.5,0.1-3-0.2-4.4-0.8c-1.2-0.6-2.3-1.6-3-2.8c-0.9-1.5-1.3-3.3-1.2-5.1c-0.1-1.2,0.1-2.3,0.5-3.4s1-2.1,1.7-3
	c1.6-1.3,3.4-2,5.4-2.2s4,0.3,5.7,1.2c1.3,1,2.2,2.3,2.7,3.9l-4.5,1c-0.1-0.4-0.3-0.8-0.5-1.1c-0.3-0.4-0.6-0.7-1.1-0.9
	c-0.4-0.2-0.9-0.3-1.4-0.3c-0.5,0-1.1,0.1-1.5,0.3s-0.9,0.6-1.2,1.1c-0.5,1-0.8,2.1-0.7,3.3c-0.1,1.3,0.2,2.6,0.8,3.8
	c0.3,0.3,0.7,0.6,1.1,0.8c0.4,0.2,0.9,0.3,1.3,0.2c0.4,0,0.8,0,1.2-0.2c0.4-0.1,0.7-0.4,1-0.7C128.5,18.3,128.8,17.4,129,16.6z"/>
<path class="st0" d="M136,6.7h5.1v5.8h5.6V6.7h5.2v16.7h-5.2v-6.7h-5.6v6.7H136V6.7z"/>
<path class="st0" d="M155.6,6.7h5.2v16.7h-5.2L155.6,6.7z"/>
<path class="st0" d="M172.1,6.7h6.8l2.6,10.1l2.6-10.1h6.8v16.7h-4.2V10.7l-3.3,12.7h-3.8l-3.2-12.7v12.7h-4.2V6.7z"/>
<path class="st0" d="M204.4,20.6h-5.8l-0.8,2.8h-5.3l6.3-16.7h5.6l6.3,16.7h-5.4L204.4,20.6z M203.3,17l-1.8-6l-1.8,6H203.3z"/>
<path class="st0" d="M212.3,23.4V6.7h8.6c1.2,0,2.5,0.1,3.6,0.4c0.8,0.3,1.5,0.8,2,1.5c0.5,0.8,0.8,1.7,0.8,2.7
	c0,0.8-0.2,1.7-0.6,2.4c-0.4,0.7-1,1.2-1.6,1.6c-0.6,0.3-1.2,0.5-1.8,0.7c0.5,0.1,0.9,0.3,1.3,0.6c0.3,0.3,0.6,0.6,0.8,0.9
	c0.3,0.3,0.5,0.7,0.7,1l2.5,4.8h-5.8l-2.8-5.1c-0.2-0.5-0.5-0.9-0.9-1.3c-0.4-0.3-0.8-0.4-1.3-0.4h-0.5v6.8L212.3,23.4z M217.5,13.5
	h2.2c0.5,0,0.9-0.1,1.4-0.2c0.3-0.1,0.6-0.3,0.8-0.5c0.2-0.3,0.3-0.6,0.3-1c0-0.2,0-0.5-0.1-0.7c-0.1-0.2-0.2-0.4-0.4-0.6
	c-0.6-0.4-1.3-0.5-1.9-0.4h-2.3V13.5z"/>
<path class="st0" d="M229,6.7h15.6v4.1h-5.2v12.5h-5.1V10.8H229V6.7z"/>
<path class="st2" d="M64.8,48.2V35.5h2.5l5.2,8.4v-8.4h2.4v12.6h-2.6l-5.1-8.2v8.2H64.8z"/>
<path class="st2" d="M77.6,37.6v-2.3h2.5v2.3H77.6z M77.6,48.3v-9.4h2.5v9.4H77.6z"/>
<path class="st2" d="M88.1,45.3l2.5,0.4c-0.3,0.8-0.8,1.6-1.5,2.1c-0.8,0.5-1.7,0.7-2.6,0.7c-0.7,0.1-1.4-0.1-2-0.3
	c-0.6-0.3-1.2-0.7-1.6-1.3c-0.6-1-1-2.1-0.9-3.2c-0.1-1.3,0.4-2.6,1.2-3.7c0.4-0.4,0.9-0.8,1.4-1c0.5-0.2,1.1-0.3,1.7-0.3
	c0.6,0,1.2,0.1,1.8,0.3c0.6,0.2,1.1,0.6,1.5,1.1c0.9,1.2,1.3,2.7,1.2,4.2h-6.2c0,0.6,0.2,1.2,0.6,1.7c0.2,0.2,0.4,0.4,0.7,0.5
	c0.2,0.1,0.5,0.2,0.8,0.1c0.4,0,0.7-0.1,1-0.3C87.8,46,88,45.7,88.1,45.3z M83.3,37.7l1.9-2.6h2.3l1.8,2.6h-2l-1-1.3l-1,1.3H83.3z
	 M87.5,34.6h-1.6l-2.4-2.5h2.8L87.5,34.6z M88.2,42.8c0-0.6-0.2-1.2-0.6-1.6c-0.2-0.2-0.4-0.3-0.6-0.4c-0.2-0.1-0.5-0.1-0.7-0.1
	c-0.3,0-0.5,0-0.7,0.1c-0.2,0.1-0.4,0.3-0.6,0.4c-0.4,0.5-0.6,1-0.5,1.6H88.2z"/>
<path class="st2" d="M92.5,38.9h2.3v1.3c0.3-0.5,0.8-0.8,1.3-1.1c0.5-0.3,1.1-0.4,1.6-0.4c0.5,0,1.1,0.1,1.6,0.4
	c0.5,0.3,0.8,0.7,1.1,1.1c0.4-0.5,0.8-0.8,1.3-1.1c0.5-0.2,1-0.4,1.5-0.4c0.6,0,1.2,0.1,1.8,0.4c0.5,0.3,0.9,0.7,1.1,1.2
	c0.2,0.6,0.3,1.3,0.3,1.9v6h-2.5v-5.4c0.1-0.6,0-1.2-0.3-1.8c-0.1-0.2-0.3-0.3-0.5-0.4c-0.2-0.1-0.4-0.1-0.6-0.1
	c-0.4,0-0.7,0.1-1,0.3c-0.3,0.2-0.6,0.6-0.7,0.9c-0.2,0.6-0.2,1.3-0.2,1.9v4.5h-2.5v-5.1c0-0.6,0-1.2-0.1-1.8
	c-0.1-0.2-0.2-0.4-0.4-0.6c-0.2-0.1-0.5-0.2-0.8-0.2c-0.4,0-0.7,0.1-1,0.3c-0.3,0.2-0.5,0.5-0.7,0.9C95,42.4,95,43.1,95,43.7v4.6
	h-2.5V38.9z"/>
<path class="st2" d="M118.1,38.9v2h-1.7v3.8c0,0.4,0,0.9,0.1,1.3c0,0.1,0.1,0.2,0.2,0.3c0.1,0.1,0.3,0.1,0.4,0.1
	c0.3,0,0.7-0.1,1-0.2l0.2,1.9c-0.6,0.3-1.3,0.4-2,0.4c-0.4,0-0.8-0.1-1.2-0.2c-0.3-0.1-0.6-0.3-0.8-0.6c-0.2-0.3-0.3-0.6-0.4-1
	c-0.1-0.6-0.1-1.2-0.1-1.8v-4.1h-1.1v-2h1.1V37l2.5-1.5v3.3H118.1z"/>
<path class="st2" d="M119.8,37.6v-2.3h2.5v2.3H119.8z M119.8,48.3v-9.4h2.5v9.4H119.8z"/>
<path class="st2" d="M133.4,48.3h-2.5v-4.8c0-0.7,0-1.3-0.2-2c-0.1-0.3-0.3-0.5-0.5-0.7c-0.3-0.2-0.6-0.3-0.9-0.2
	c-0.4,0-0.8,0.1-1.2,0.4c-0.3,0.2-0.6,0.6-0.7,0.9c-0.2,0.7-0.2,1.4-0.2,2.2v4.2h-2.5v-9.4h2.3v1.4c0.5-0.7,1.2-1.2,2.1-1.4
	c0.8-0.2,1.7-0.2,2.5,0.2c0.4,0.2,0.8,0.4,1,0.8c0.2,0.3,0.4,0.7,0.5,1c0.1,0.6,0.1,1.1,0.1,1.7L133.4,48.3z"/>
<path class="st2" d="M149.1,41.7l-2.4,0.4c0-0.4-0.2-0.8-0.6-1.1c-0.3-0.3-0.7-0.4-1.1-0.4c-0.3,0-0.6,0-0.8,0.1
	c-0.3,0.1-0.5,0.3-0.7,0.5c-0.4,0.6-0.6,1.4-0.6,2.1c-0.1,0.8,0.1,1.7,0.6,2.4c0.2,0.2,0.4,0.4,0.7,0.5c0.3,0.1,0.5,0.2,0.8,0.2
	c0.4,0,0.8-0.1,1.2-0.4c0.4-0.4,0.6-0.9,0.6-1.4l2.4,0.4c-0.2,1-0.7,1.9-1.5,2.5c-0.8,0.6-1.9,0.9-2.9,0.9c-0.6,0-1.2-0.1-1.8-0.3
	c-0.6-0.2-1.1-0.6-1.5-1c-0.9-1-1.3-2.3-1.2-3.6c-0.1-1.3,0.4-2.6,1.2-3.6c0.4-0.4,0.9-0.8,1.5-1c0.6-0.2,1.2-0.3,1.8-0.3
	c1-0.1,1.9,0.2,2.7,0.7C148.4,40,148.9,40.8,149.1,41.7z"/>
<path class="st2" d="M157.2,48.3v-1.4c-0.3,0.5-0.8,0.9-1.3,1.2c-0.5,0.3-1.1,0.4-1.8,0.4c-0.6,0-1.2-0.1-1.7-0.4
	c-0.5-0.3-0.9-0.7-1.1-1.2c-0.3-0.7-0.4-1.4-0.3-2.1v-5.9h2.5v4.3c0,0.8,0,1.6,0.1,2.4c0.1,0.3,0.3,0.5,0.5,0.7
	c0.3,0.2,0.6,0.3,0.9,0.3c0.4,0,0.8-0.1,1.1-0.3c0.3-0.2,0.6-0.5,0.7-0.9c0.2-0.8,0.2-1.7,0.2-2.5v-4h2.5v9.4H157.2z M155.4,36.7
	c0.3-0.1,0.5-0.2,0.5-0.4c0-0.1-0.1-0.2-0.2-0.3c-0.4-0.2-0.8-0.2-1.2-0.2c-0.2,0-0.5,0-0.8,0l-0.1-0.9c0.4-0.1,0.8-0.1,1.3-0.1
	c0.6,0,1.2,0.1,1.8,0.4c0.2,0.1,0.4,0.2,0.5,0.4c0.1,0.2,0.2,0.4,0.2,0.6c0,0.6-0.5,1-1.6,1.1v0.4h-1v-1
	C155,36.8,155.2,36.7,155.4,36.7L155.4,36.7z"/>
<path class="st2" d="M163.9,41.8l-2.3-0.4c0.2-0.8,0.6-1.5,1.3-2c0.8-0.5,1.8-0.7,2.8-0.6c0.8,0,1.7,0.1,2.5,0.4
	c0.5,0.2,0.9,0.6,1.1,1c0.3,0.7,0.4,1.5,0.3,2.2l0,2.9c0,0.6,0,1.2,0.1,1.8c0.1,0.4,0.2,0.9,0.4,1.3h-2.5c-0.1-0.2-0.1-0.4-0.2-0.7
	c0-0.1-0.1-0.2-0.1-0.3c-0.4,0.4-0.9,0.7-1.4,0.9c-0.5,0.2-1,0.3-1.5,0.3c-0.8,0-1.7-0.2-2.3-0.8c-0.4-0.4-0.7-1-0.8-1.6
	c-0.1-0.6,0-1.2,0.4-1.8c0.3-0.4,0.6-0.7,1.1-1c0.6-0.3,1.3-0.5,2-0.6c0.8-0.1,1.6-0.3,2.4-0.6v-0.2c0-0.2,0-0.4-0.1-0.5
	c-0.1-0.2-0.2-0.3-0.3-0.5c-0.4-0.2-0.9-0.4-1.3-0.3c-0.4,0-0.7,0.1-1,0.3C164.2,41.1,164,41.4,163.9,41.8z M167.2,43.8
	c-0.5,0.2-1,0.3-1.5,0.4c-0.5,0.1-0.9,0.2-1.3,0.4c-0.1,0.1-0.3,0.2-0.4,0.4c-0.1,0.2-0.1,0.3-0.1,0.5c0,0.2,0,0.3,0.1,0.5
	c0.1,0.2,0.2,0.3,0.3,0.4c0.1,0.1,0.3,0.2,0.5,0.3c0.2,0.1,0.4,0.1,0.5,0.1c0.5,0,0.9-0.2,1.3-0.4c0.3-0.2,0.5-0.5,0.6-0.8
	c0.1-0.4,0.1-0.8,0.1-1.2L167.2,43.8z"/>
<path class="st2" d="M177,38.9h2.3v1.3c0.3-0.5,0.8-0.8,1.3-1.1c0.5-0.3,1.1-0.4,1.6-0.4c0.5,0,1.1,0.1,1.6,0.4
	c0.5,0.3,0.8,0.7,1.1,1.1c0.4-0.5,0.8-0.8,1.3-1.1c0.5-0.2,1-0.4,1.5-0.4c0.6,0,1.2,0.1,1.8,0.4c0.5,0.3,0.9,0.7,1.1,1.2
	c0.2,0.6,0.3,1.3,0.3,1.9v6h-2.5v-5.4c0.1-0.6,0-1.2-0.3-1.8c-0.1-0.2-0.3-0.3-0.5-0.4c-0.2-0.1-0.4-0.1-0.6-0.1
	c-0.4,0-0.7,0.1-1,0.3c-0.3,0.2-0.6,0.6-0.7,0.9c-0.2,0.6-0.2,1.3-0.2,1.9v4.5h-2.5v-5.1c0-0.6,0-1.2-0.1-1.8
	c-0.1-0.2-0.2-0.4-0.4-0.6c-0.2-0.1-0.5-0.2-0.8-0.2c-0.4,0-0.7,0.1-1,0.3c-0.3,0.2-0.5,0.5-0.7,0.9c-0.2,0.6-0.2,1.3-0.2,1.9v4.6
	H177L177,38.9z"/>
<path class="st2" d="M192.7,43.5c0-0.8,0.2-1.7,0.6-2.4c0.4-0.7,1-1.4,1.7-1.8c0.8-0.4,1.6-0.6,2.5-0.6c0.6,0,1.3,0.1,1.9,0.3
	c0.6,0.2,1.1,0.6,1.6,1.1c0.4,0.5,0.8,1,1,1.6c0.2,0.6,0.3,1.2,0.3,1.9c0,0.7-0.1,1.3-0.3,1.9c-0.2,0.6-0.6,1.2-1,1.6
	c-0.4,0.5-1,0.8-1.6,1.1c-0.6,0.2-1.2,0.4-1.9,0.3c-0.9,0-1.7-0.2-2.5-0.6c-0.8-0.4-1.4-1-1.8-1.7C192.8,45.4,192.6,44.4,192.7,43.5
	z M195.2,43.6c-0.1,0.8,0.2,1.5,0.7,2.1c0.2,0.2,0.5,0.4,0.7,0.5c0.3,0.1,0.6,0.2,0.9,0.2c0.3,0,0.6-0.1,0.9-0.2
	c0.3-0.1,0.5-0.3,0.7-0.5c0.5-0.6,0.7-1.4,0.7-2.2c0.1-0.8-0.2-1.5-0.7-2.1c-0.2-0.2-0.5-0.4-0.7-0.5c-0.3-0.1-0.6-0.2-0.9-0.2
	c-0.3,0-0.6,0.1-0.9,0.2c-0.3,0.1-0.5,0.3-0.7,0.5C195.4,42.1,195.2,42.8,195.2,43.6L195.2,43.6z M196.2,51.8v-2.5h2.5v2.5H196.2z"
	/>
<path class="st2" d="M204.3,37.6v-2.3h2.5v2.3H204.3z M204.3,48.3v-9.4h2.5v9.4H204.3z"/>
<path class="st2" d="M222.9,48.3h-2.5v-4.8c0-0.7,0-1.3-0.2-2c-0.1-0.3-0.3-0.5-0.5-0.7c-0.3-0.2-0.6-0.3-0.9-0.2
	c-0.4,0-0.8,0.1-1.2,0.4c-0.3,0.2-0.6,0.6-0.7,0.9c-0.2,0.7-0.2,1.4-0.2,2.2v4.2h-2.5v-9.4h2.3v1.4c0.5-0.7,1.2-1.2,2.1-1.4
	c0.8-0.2,1.7-0.2,2.5,0.2c0.4,0.2,0.8,0.4,1,0.8c0.2,0.3,0.4,0.7,0.5,1c0.1,0.6,0.1,1.1,0.1,1.7L222.9,48.3z"/>
<path class="st2" d="M227.9,35.3v4.8c0.3-0.4,0.8-0.8,1.3-1c0.5-0.2,1-0.4,1.6-0.4c0.5,0,1.1,0.1,1.5,0.3c0.4,0.2,0.8,0.5,1,0.8
	c0.2,0.3,0.4,0.7,0.5,1.1c0.1,0.6,0.1,1.2,0.1,1.9v5.5h-2.5v-5c0-0.6,0-1.3-0.1-1.9c-0.1-0.3-0.3-0.5-0.5-0.6
	c-0.3-0.2-0.6-0.2-0.9-0.2c-0.4,0-0.8,0.1-1.1,0.3c-0.3,0.2-0.6,0.5-0.7,0.9c-0.2,0.6-0.2,1.2-0.2,1.8v4.7h-2.5V35.3H227.9z"/>
<path class="st2" d="M238.3,41.8l-2.3-0.4c0.2-0.8,0.6-1.5,1.3-2c0.8-0.5,1.8-0.7,2.8-0.6c0.8,0,1.7,0.1,2.5,0.4
	c0.5,0.2,0.9,0.6,1.1,1c0.3,0.7,0.4,1.5,0.3,2.2l0,2.9c0,0.6,0,1.2,0.1,1.8c0.1,0.4,0.2,0.9,0.4,1.3h-2.5c-0.1-0.2-0.2-0.5-0.2-0.7
	c0-0.1-0.1-0.2-0.1-0.3c-0.4,0.4-0.9,0.7-1.4,0.9c-0.5,0.2-1,0.3-1.6,0.3c-0.8,0-1.6-0.2-2.3-0.8c-0.3-0.3-0.5-0.6-0.6-0.9
	c-0.1-0.3-0.2-0.7-0.2-1.1c0-0.5,0.1-1,0.4-1.4c0.3-0.4,0.6-0.7,1.1-0.9c0.6-0.3,1.3-0.5,2-0.6c0.8-0.1,1.6-0.3,2.4-0.6v-0.2
	c0-0.2,0-0.4-0.1-0.5c-0.1-0.2-0.2-0.3-0.3-0.5c-0.4-0.2-0.9-0.4-1.3-0.3c-0.4,0-0.7,0.1-1,0.3C238.6,41.1,238.4,41.4,238.3,41.8z
	 M241.4,37.8h-1.6l-2.4-2.6h2.8L241.4,37.8z M241.6,43.8c-0.3,0.1-0.8,0.2-1.5,0.4c-0.5,0.1-0.9,0.2-1.4,0.4
	c-0.1,0.1-0.3,0.2-0.4,0.4c-0.1,0.2-0.1,0.3-0.1,0.5c0,0.2,0,0.3,0.1,0.5c0.1,0.2,0.2,0.3,0.3,0.4c0.1,0.1,0.3,0.2,0.5,0.3
	c0.2,0.1,0.4,0.1,0.5,0.1c0.5,0,0.9-0.2,1.3-0.4c0.3-0.2,0.5-0.5,0.6-0.8c0.1-0.4,0.1-0.8,0.1-1.2L241.6,43.8z"/>
<path class="st1" d="M54.6,0.9h-0.9v52.7h0.9V0.9z"/>
<path class="st1" d="M0.9,0.9H0v53.6h0.9V0.9z"/>
<path class="st1" d="M54.6,0H0v0.9h54.6V0z"/>
<path class="st1" d="M54.6,53.6H0v0.9h54.6V53.6z"/>
</svg>
